<?xml version="1.0" encoding="utf-8" standalone="no"?>
<!DOCTYPE svg PUBLIC "-//W3C//DTD SVG 1.1//EN"
  "http://www.w3.org/Graphics/SVG/1.1/DTD/svg11.dtd">
<!-- Created with matplotlib (https://matplotlib.org/) -->
<svg height="216pt" version="1.1" viewBox="0 0 1080 216" width="1080pt" xmlns="http://www.w3.org/2000/svg" xmlns:xlink="http://www.w3.org/1999/xlink">
 <defs>
  <style type="text/css">
*{stroke-linecap:butt;stroke-linejoin:round;}
  </style>
 </defs>
 <g id="figure_1">
  <g id="patch_1">
   <path d="M 0 216 
L 1080 216 
L 1080 0 
L 0 0 
z
" style="fill:#ffffff;"/>
  </g>
  <g id="axes_1">
   <g id="matplotlib.axis_1"/>
   <g id="matplotlib.axis_2"/>
   <g id="patch_2">
    <path d="M 618.732 107.46 
C 618.732 98.109422 616.721484 88.867232 612.837114 80.361647 
C 608.952744 71.856063 603.284569 64.284269 596.217874 58.160943 
C 589.151179 52.037617 580.849789 47.504715 571.877976 44.870354 
C 562.906162 42.235992 553.471917 41.561242 544.216515 42.891968 
C 534.961113 44.222695 526.099121 47.528047 518.232915 52.583352 
C 510.366709 57.638656 503.67865 64.326716 498.623347 72.192922 
C 493.568044 80.059129 490.262692 88.921122 488.931967 98.176524 
C 487.601242 107.431927 488.275993 116.866171 490.910356 125.837985 
L 553.5 107.46 
L 618.732 107.46 
z
" style="fill:#1f77b4;stroke:#ffffff;stroke-linejoin:miter;"/>
   </g>
   <g id="patch_3">
    <path d="M 490.910356 125.837985 
C 494.27101 137.283317 500.707545 147.590539 509.516691 155.633461 
C 518.325837 163.676383 529.174631 169.151003 540.877711 171.459154 
C 552.580791 173.767304 564.695812 172.821742 575.899059 168.725781 
C 587.102307 164.629821 596.970328 157.538279 604.424921 148.225993 
L 553.5 107.46 
L 490.910356 125.837985 
z
" style="fill:#ff7f0e;stroke:#ffffff;stroke-linejoin:miter;"/>
   </g>
   <g id="patch_4">
    <path d="M 604.424921 148.225993 
C 609.022314 142.482926 612.615244 136.003311 615.051395 129.061841 
C 617.487547 122.120372 618.732001 114.816544 618.732 107.459994 
L 553.5 107.46 
L 604.424921 148.225993 
z
" style="fill:#2ca02c;stroke:#ffffff;stroke-linejoin:miter;"/>
   </g>
  </g>
 </g>
</svg>
